<svg id="Layer_1" data-name="Layer 1" xmlns="http://www.w3.org/2000/svg" xmlns:xlink="http://www.w3.org/1999/xlink" viewBox="0 0 373.9 219.91"><defs><style>.cls-1{fill:#dcb065;}.cls-2{fill:url(#linear-gradient);}.cls-3{fill:url(#linear-gradient-2);}.cls-4,.cls-5{fill:#09463f;}.cls-5{font-size:21.57px;font-family:Almarai-Regular, Almarai;}</style><linearGradient id="linear-gradient" x1="159.2" y1="72.76" x2="234.4" y2="72.76" gradientUnits="userSpaceOnUse"><stop offset="0" stop-color="#09463f"/><stop offset="1" stop-color="#0b2b28"/></linearGradient><linearGradient id="linear-gradient-2" x1="146.97" y1="77.32" x2="246.63" y2="77.32" xlink:href="#linear-gradient"/></defs><path class="cls-1" d="M248.77,124.53c-18.38,18.37-85.57,18.37-103.94,0s-18.38-85.57,0-103.94,85.56-18.37,103.94,0,18.37,85.56,0,103.94" transform="translate(-9.82 -6.81)"/><path class="cls-2" d="M223,37.42l-.15-.16a1.2,1.2,0,0,0-.21-.17L222.4,37l-.26-.11-.18-.07a2,2,0,0,0-.48-.07H172.14a2.08,2.08,0,0,0-.5.07l-.12,0a2,2,0,0,0-.34.14l-.12.09a1.42,1.42,0,0,0-.28.22l-.1.11s-.09.09-.13.15l-11,15.6a2,2,0,0,0,0,2.21L195.19,108a2,2,0,0,0,1.61.85,1.94,1.94,0,0,0,1.61-.85L209.19,92l24.88-36.69a2,2,0,0,0,0-2.21l-11-15.6A1.27,1.27,0,0,0,223,37.42ZM217.8,40.6,207.57,55.7,197.33,40.6Zm-25.16,0,12.58,18.56-8.41,12.42-21-31Zm4.16,62.81L163.5,54.28l8.61-12.21.68,1L205.24,91Zm10.79-15.92L199.15,75,201.91,71l19.59-28.9,8.6,12.21Z" transform="translate(-9.82 -6.81)"/><path class="cls-3" d="M227.51,27H166.09L147,54.13l49.83,73.51,49.83-73.51h0ZM196.8,120.72l-17.21-25.4-27.9-41.15,16.42-23.28h57.38L241.9,54.17Z" transform="translate(-9.82 -6.81)"/><path class="cls-4" d="M15.57,176.23a8.3,8.3,0,0,1-1.45-4.93,7.54,7.54,0,0,1,2.57-6,8.14,8.14,0,0,1,5.48-1.94,6.88,6.88,0,0,1,5.49,2.19,5.94,5.94,0,0,1,1.53,4.23V176a3.59,3.59,0,0,1-1.32,2.88,3.52,3.52,0,0,1-2.43.94H16.55a.77.77,0,0,0-.87.87V191l-2.16,1.7H11.44V180.05a3.78,3.78,0,0,1,1.06-2.69A3.33,3.33,0,0,1,15,176.23ZM25,169.8a2.79,2.79,0,0,0-2.81-2.88,3.4,3.4,0,0,0-2.78,1.27,5.91,5.91,0,0,0,.05,6.77,3.75,3.75,0,0,0,3,1.27h1.66a.77.77,0,0,0,.87-.87Zm12.78-14.89v24l-2.15,1.74H33.49V154.91ZM45,163.59a15.87,15.87,0,0,1,2.75-.21A8.57,8.57,0,0,1,54.23,166a8.11,8.11,0,0,1,2.18,5.76v3.34c0,.53,0,.92,0,1.18h.9v3.54h-.45l-1.15-1.42h-.1a8.21,8.21,0,0,1-.59.59,3.65,3.65,0,0,1-2.33.83H41.52v-3.54h9.79a.77.77,0,0,0,.87-.87v-3.23a5.2,5.2,0,0,0-1.46-3.85,5.62,5.62,0,0,0-3.93-1.46A7.93,7.93,0,0,0,45,167ZM64,176.23a8.17,8.17,0,0,1-1.56-5,7.91,7.91,0,0,1,1.35-4.62,7.19,7.19,0,0,1,6.32-3.19,7.51,7.51,0,0,1,5.25,1.94,7.62,7.62,0,0,1,2.46,5.87,8.47,8.47,0,0,1-1.56,5h2.4v3.54H73.4a8.62,8.62,0,0,1-3.27-.45H70a8.48,8.48,0,0,1-3.27.45H57v-3.54Zm3.54-20.07a2.25,2.25,0,0,1,2.26,2.25,2.14,2.14,0,0,1-.66,1.57,2.17,2.17,0,0,1-1.6.66,2.25,2.25,0,0,1-2.22-2.23,2.17,2.17,0,0,1,.66-1.59A2.13,2.13,0,0,1,67.49,156.16Zm2.57,20a3.5,3.5,0,0,0,2.52-1.44,5.19,5.19,0,0,0,1-3.24,5.47,5.47,0,0,0-.93-3.34,3.19,3.19,0,0,0-5.06,0,5.41,5.41,0,0,0-1,3.34,5.26,5.26,0,0,0,1,3.24A3.5,3.5,0,0,0,70.06,176.19Zm2.71-20A2.25,2.25,0,0,1,75,158.41a2.14,2.14,0,0,1-.66,1.57,2.26,2.26,0,0,1-3.18,0,2.13,2.13,0,0,1-.64-1.58,2.19,2.19,0,0,1,.64-1.59A2.13,2.13,0,0,1,72.77,156.16Zm16,7.64v12.43h1.77v3.54H89.37l-1.28-1.42H88a3.68,3.68,0,0,1-3,1.42h-6.7v-3.54h5.25a.8.8,0,0,0,.69-.28.88.88,0,0,0,.31-.69V163.8Zm-7.09-7.64A2.25,2.25,0,0,1,84,158.41a2.14,2.14,0,0,1-.66,1.57,2.27,2.27,0,0,1-3.2,0,2.14,2.14,0,0,1-.66-1.57,2.17,2.17,0,0,1,.66-1.59A2.19,2.19,0,0,1,81.73,156.16Zm5.28,0a2.19,2.19,0,0,1,1.6.66,2.17,2.17,0,0,1,.66,1.59,2.14,2.14,0,0,1-.66,1.57,2.19,2.19,0,0,1-1.6.66,2.25,2.25,0,0,1-2.22-2.23,2.17,2.17,0,0,1,.66-1.59A2.13,2.13,0,0,1,87,156.16Zm40.18,7.64V176a3.76,3.76,0,0,1-1.09,2.69,3.58,3.58,0,0,1-2.66,1.13h-7.29l-1.29-1.42h-.1a3.59,3.59,0,0,1-2.92,1.42h-7.29l-1.32-1.42h-.11a3.56,3.56,0,0,1-2.91,1.42H90.34v-3.54h8.51a.77.77,0,0,0,.87-.87v-7.57H104v7c0,.67,0,1.16,0,1.49h6.57a.77.77,0,0,0,.86-.87v-9.58h4.24v9.27c0,.14,0,.34,0,.62v.56h6.52a.77.77,0,0,0,.87-.87V163.8Zm23-8.89v20.42q0,.61,0,.9H152v3.54h-1.36l-1.15-1.42h-.1a3.55,3.55,0,0,1-1.39,1.07,3.48,3.48,0,0,1-1.49.35h-14l-1.74-2.15v-1.39h8.44l-5.73-17h4l5.76,17h1.88a.9.9,0,0,0,.66-.28,1,1,0,0,0,.21-.59V154.91Zm-9.3,33.44a3.63,3.63,0,0,1-.59-2,3.27,3.27,0,0,1,.88-2.4,3.2,3.2,0,0,1,2.38-.9,5.79,5.79,0,0,1,1.77.31v1.84a4.43,4.43,0,0,0-1.28-.21c-1,0-1.53.56-1.53,1.67a1.79,1.79,0,0,0,.35,1.11,1.45,1.45,0,0,0,1.25.56h2.36v.87l-.84,1h-6.14v-1.87Zm21.29-33.44v21a3.63,3.63,0,0,1-.94,2.5,3.47,3.47,0,0,1-2.82,1.32h-6.7v-3.54h5.35a.9.9,0,0,0,.66-.28.81.81,0,0,0,.24-.59V154.91Zm15.41,18.82v4.83c0,2.19.55,3.74,1.65,4.63s3,1.34,5.68,1.34a10.65,10.65,0,0,0,5.07-.9,4.6,4.6,0,0,0,2.19-3.86h-2.15l-1.81-2.22v-1.32h9.59v3.54h-1.32A8.09,8.09,0,0,1,193,186.3a10.71,10.71,0,0,1-6.35,1.77h-3.44a10.26,10.26,0,0,1-7-2.26,8.36,8.36,0,0,1-2.88-6.87v-3.51l2.15-1.7Zm27.65-18.82v21a3.58,3.58,0,0,1-.94,2.5,3.45,3.45,0,0,1-2.81,1.32h-6.7v-3.54h5.34a.87.87,0,0,0,.66-.28.82.82,0,0,0,.25-.59V154.91Zm9.06,29.62q5.6,0,6-4.9a10.66,10.66,0,0,1-2.91.42,7.31,7.31,0,0,1-6-2.85,8.91,8.91,0,0,1-1.87-5.66,8.08,8.08,0,0,1,2.12-5.8,7.72,7.72,0,0,1,5.94-2.36,7.46,7.46,0,0,1,4.65,1.42,5.79,5.79,0,0,1,2.36,5v9.14a8.47,8.47,0,0,1-2.85,6.87,9.28,9.28,0,0,1-4.06,1.95,12.47,12.47,0,0,1-2.71.28c-.25,0-.66,0-1.21-.07l-1.71-2.12v-1.5a13.76,13.76,0,0,0,2.19.18Zm6.11-14.73a2.75,2.75,0,0,0-1-2.29,2.68,2.68,0,0,0-1.77-.59,3.46,3.46,0,0,0-2.83,1.25,6.15,6.15,0,0,0,.13,7,4.05,4.05,0,0,0,3.18,1.3,6.78,6.78,0,0,0,2.29-.42Zm26.78-14.89v21a3.58,3.58,0,0,1-1,2.54,3.54,3.54,0,0,1-2.78,1.28H229.53l-1.73-2.15v-1.39h8.44l-5.73-17h4l5.77,17h1.87a.94.94,0,0,0,.7-.28,1.12,1.12,0,0,0,.17-.59V154.91Zm-17.12.2a3.7,3.7,0,0,1-.56-2,3.3,3.3,0,0,1,.87-2.41,3.16,3.16,0,0,1,2.36-.88,4.91,4.91,0,0,1,1.77.34V152a4.43,4.43,0,0,0-1.28-.21c-1,0-1.53.56-1.53,1.67a1.9,1.9,0,0,0,.35,1.11,1.61,1.61,0,0,0,1.28.55h2.3V156l-.8,1h-6.12v-1.88Zm26.15-.2v24l-2.15,1.74H252V154.91Zm25.77,8v10.83a6,6,0,0,1-2.05,4.76,7.82,7.82,0,0,1-5.25,1.63,7.27,7.27,0,0,1-5.76-2.36,8,8,0,0,1-2-5.73,8.76,8.76,0,0,1,2.54-6.46,7.8,7.8,0,0,1,9-1.49l1.46-1.18Zm-4.24,4.48a6.06,6.06,0,0,0-2.29-.49,3.92,3.92,0,0,0-3.15,1.43,5.6,5.6,0,0,0-1.19,3.71,5.22,5.22,0,0,0,.95,3.35,3.21,3.21,0,0,0,2.66,1.2,2.71,2.71,0,0,0,3-2.88Zm-3.3-11.18a2.11,2.11,0,0,1,1.58.66,2.19,2.19,0,0,1,.64,1.59,2.2,2.2,0,0,1-2.22,2.23,2.19,2.19,0,0,1-1.6-.66,2.14,2.14,0,0,1-.66-1.57,2.17,2.17,0,0,1,.66-1.59A2.19,2.19,0,0,1,274.47,156.16Zm5.28,0a2.19,2.19,0,0,1,1.6.66,2.17,2.17,0,0,1,.66,1.59,2.14,2.14,0,0,1-.66,1.57,2.27,2.27,0,0,1-3.2,0,2.14,2.14,0,0,1-.66-1.57,2.25,2.25,0,0,1,2.26-2.25Zm14.69,7.64v12.43h1.77v3.54H294.4a8.16,8.16,0,0,1-3.29,6.39A10.08,10.08,0,0,1,285,188l-1.36,0-1.7-2.12v-1.5a13.49,13.49,0,0,0,2.16.18q6.13,0,6.14-6V163.8Zm10,.38a19.16,19.16,0,0,1,7.74-1.74q4.89,0,7.47,3.06a10.56,10.56,0,0,1,2.18,7V176a3.74,3.74,0,0,1-1.18,2.74,3.48,3.48,0,0,1-2.57,1.08h-8.43a6.24,6.24,0,0,1-2.57-.38h-.14a6.31,6.31,0,0,1-2.57.38h-8.41v-3.54h6.25a6,6,0,0,1-.86-1.77,6.7,6.7,0,0,1-.35-2.26,6.6,6.6,0,0,1,1-3.68,5.39,5.39,0,0,1,2.4-2Zm.59,10.45a2.54,2.54,0,0,0,1.94,1.18,2.41,2.41,0,0,0,1.84-1.07,4.57,4.57,0,0,0,.7-2.4,3.74,3.74,0,0,0-.77-2.54,2.26,2.26,0,0,0-1.77-.83,2.24,2.24,0,0,0-2.08,1.25,4.34,4.34,0,0,0-.49,2.12,4.8,4.8,0,0,0,.63,2.29Zm12.57-1.6q0-3.89-1.7-5.62a6.62,6.62,0,0,0-4.87-1.6,14.72,14.72,0,0,0-3.09.35,5.77,5.77,0,0,1,3.62,1.87A6,6,0,0,1,313,172.2a7.17,7.17,0,0,1-.31,2.15,6.39,6.39,0,0,1-.87,1.88h4.87a.91.91,0,0,0,.62-.21.88.88,0,0,0,.28-.66Zm15.94,6.74a7.44,7.44,0,0,1-6-2.6,8.32,8.32,0,0,1-1.84-5.49,8.22,8.22,0,0,1,2.19-6.08,8.08,8.08,0,0,1,5.87-2.22,7.93,7.93,0,0,1,4.51,1.28,6,6,0,0,1,2.5,5.14v6.43h1.11v3.54H340.7a8.2,8.2,0,0,1-2.64,5.87,9.09,9.09,0,0,1-4,2.05,14.17,14.17,0,0,1-3.19.38c-.35,0-.85,0-1.49-.07h-.11l-1.77-2.19v-1.52a16.12,16.12,0,0,0,2.67.24q5.7,0,6.22-4.76Zm3-10a2.76,2.76,0,0,0-.9-2.18,2.73,2.73,0,0,0-1.87-.7,3.5,3.5,0,0,0-2.82,1.25,5.23,5.23,0,0,0-1,3.44A4.79,4.79,0,0,0,331,175a4,4,0,0,0,3.12,1.25h2.36Zm9.69-5.41a20.52,20.52,0,0,1,6-1A9,9,0,0,1,359,166a8.15,8.15,0,0,1,2.33,6v4.24h1.15v3.54h-.73l-1.15-1.42h-.07a3.68,3.68,0,0,1-2.95,1.42h-16v-3.54h14.62a.77.77,0,0,0,.86-.87v-3.13a4.88,4.88,0,0,0-1.58-3.8,5.9,5.9,0,0,0-4.15-1.44,27,27,0,0,0-5.14.76Zm4.87,17.92a2.26,2.26,0,0,1,0,4.51,2.14,2.14,0,0,1-1.57-.66,2.26,2.26,0,0,1,0-3.19A2.14,2.14,0,0,1,351.05,182.31Zm21.6-27.4v21a3.63,3.63,0,0,1-.94,2.5,3.46,3.46,0,0,1-2.81,1.32h-6.71v-3.54h5.35a.87.87,0,0,0,.66-.28.81.81,0,0,0,.24-.59V154.91Zm9,0v24l-2.16,1.74h-2.08V154.91Z" transform="translate(-9.82 -6.81)"/><text class="cls-5" transform="translate(0 211.37)">Aljawhara Alowla Recrultment</text></svg>