<svg id="Layer_1" data-name="Layer 1" xmlns="http://www.w3.org/2000/svg" xmlns:xlink="http://www.w3.org/1999/xlink" viewBox="0 0 522.79 131.5"><defs><style>.cls-1{fill:#dcb065;}.cls-2{fill:url(#linear-gradient);}.cls-3{fill:url(#linear-gradient-2);}.cls-4{fill:#09463f;}</style><linearGradient id="linear-gradient" x1="436.22" y1="66.99" x2="511.41" y2="66.99" gradientTransform="matrix(1, 0, 0, -1, -9.82, 139.19)" gradientUnits="userSpaceOnUse"><stop offset="0" stop-color="#09463f"/><stop offset="1" stop-color="#0b2b28"/></linearGradient><linearGradient id="linear-gradient-2" x1="424.01" y1="62.47" x2="523.67" y2="62.47" xlink:href="#linear-gradient"/></defs><path class="cls-1" d="M516,123.93c-18.38,18.37-85.57,18.37-103.94,0S393.64,38.36,412,20,497.58,1.62,516,20s18.37,85.56,0,103.94" transform="translate(-6.95 -6.21)"/><path class="cls-2" d="M490.19,36.82l-.15-.16a1,1,0,0,0-.21-.17l-.24-.09-.26-.11-.18-.07a1.59,1.59,0,0,0-.48-.07H439.33a1.68,1.68,0,0,0-.5.07h-.12a1.43,1.43,0,0,0-.34.14l-.12.09a1,1,0,0,0-.28.22l-.1.11a1.34,1.34,0,0,0-.13.15l-11,15.6a2,2,0,0,0,0,2.21l35.64,52.66a2,2,0,0,0,1.61.85,2,2,0,0,0,1.61-.85l10.78-16,24.88-36.69a2,2,0,0,0,0-2.21l-11-15.6ZM485,40,474.76,55.1,464.52,40Zm-25.16,0,12.58,18.56L464,71,443,40ZM464,102.81l-33.3-49.13,8.61-12.21.68,1L472.43,90.4Zm10.79-15.92L466.34,74.4l2.76-4,19.59-28.9,8.6,12.21Z" transform="translate(-6.95 -6.21)"/><path class="cls-3" d="M494.7,26.4H433.28L414.19,53.53,464,127l49.83-73.51h0ZM464,120.12l-17.21-25.4-27.9-41.15L435.3,30.29h57.38l16.41,23.28Z" transform="translate(-6.95 -6.21)"/><path class="cls-4" d="M18.94,49A8.19,8.19,0,0,0,13.45,51a7.61,7.61,0,0,0-2.57,6,8.31,8.31,0,0,0,1.46,4.93h-.55A3.3,3.3,0,0,0,9.27,63a3.78,3.78,0,0,0-1.06,2.69V78.36h2.08l2.16-1.7V66.28a.77.77,0,0,1,.86-.87H22.2a3.52,3.52,0,0,0,2.44-.94A3.62,3.62,0,0,0,26,61.59V55.44a5.93,5.93,0,0,0-1.53-4.23A6.91,6.91,0,0,0,18.94,49Zm2.78,12a.77.77,0,0,1-.87.87H19.18a3.77,3.77,0,0,1-3-1.27,5.91,5.91,0,0,1-.05-6.77,3.4,3.4,0,0,1,2.78-1.27,2.69,2.69,0,0,1,1.87.69,2.65,2.65,0,0,1,.94,2.19Z" transform="translate(-6.95 -6.21)"/><polygon class="cls-4" points="23.31 60.07 25.39 60.07 27.55 58.33 27.55 34.34 23.31 34.34 23.31 60.07"/><path class="cls-4" d="M64.26,46.27a2.19,2.19,0,0,0,1.6-.66,2.13,2.13,0,0,0,.66-1.56,2.25,2.25,0,0,0-2.26-2.26,2.13,2.13,0,0,0-1.56.66,2.19,2.19,0,0,0-.66,1.6,2.25,2.25,0,0,0,2.22,2.22Z" transform="translate(-6.95 -6.21)"/><path class="cls-4" d="M69.54,46.27a2.19,2.19,0,0,0,1.6-.66,2.13,2.13,0,0,0,.66-1.56,2.25,2.25,0,0,0-2.26-2.26,2.11,2.11,0,0,0-1.58.66,2.21,2.21,0,0,0-.64,1.6,2.19,2.19,0,0,0,2.22,2.22Z" transform="translate(-6.95 -6.21)"/><path class="cls-4" d="M78.5,46.27a2.19,2.19,0,0,0,1.6-.66,2.13,2.13,0,0,0,.66-1.56,2.26,2.26,0,1,0-4.52,0,2.13,2.13,0,0,0,.66,1.56A2.17,2.17,0,0,0,78.5,46.27Z" transform="translate(-6.95 -6.21)"/><path class="cls-4" d="M83.78,46.27a2.17,2.17,0,0,0,1.59-.66A2.13,2.13,0,0,0,86,44.05a2.19,2.19,0,0,0-.66-1.6,2.17,2.17,0,0,0-1.59-.66,2.14,2.14,0,0,0-1.57.66,2.19,2.19,0,0,0-.66,1.6,2.25,2.25,0,0,0,2.23,2.22Z" transform="translate(-6.95 -6.21)"/><path class="cls-4" d="M119.72,61a.77.77,0,0,1-.87.87h-6.53v-.56a6,6,0,0,0,0-.62V51.41h-4.24V61a.77.77,0,0,1-.87.87h-6.56c0-.33,0-.82,0-1.5V53.43H96.49V61a.77.77,0,0,1-.87.87h-10V49.43h-4.2V60.89a.9.9,0,0,1-.31.7.83.83,0,0,1-.7.28H73a8.47,8.47,0,0,0,1.56-5A7.58,7.58,0,0,0,72.07,51,7.48,7.48,0,0,0,66.83,49a7.18,7.18,0,0,0-6.32,3.19,7.92,7.92,0,0,0-1.36,4.62,8.18,8.18,0,0,0,1.57,5H53.15c0-.26,0-.65,0-1.18V57.35A8.08,8.08,0,0,0,51,51.59,8.5,8.5,0,0,0,44.53,49a15.82,15.82,0,0,0-2.74.21v3.36a8.6,8.6,0,0,1,1.77-.13,5.7,5.7,0,0,1,3.93,1.45,5.24,5.24,0,0,1,1.45,3.86V61a.77.77,0,0,1-.86.87h-9.8v3.54H49.43a3.67,3.67,0,0,0,2.33-.83c.21-.19.4-.39.59-.59h.1l1.15,1.42h9.86A8.48,8.48,0,0,0,66.73,65h.17a8.59,8.59,0,0,0,3.26.45H81.83a3.66,3.66,0,0,0,3-1.42h.07l1.29,1.42H97A3.58,3.58,0,0,0,99.89,64h.1l1.32,1.42h7.3A3.56,3.56,0,0,0,111.52,64h.11l1.28,1.42h7.3a3.56,3.56,0,0,0,2.65-1.13,3.73,3.73,0,0,0,1.1-2.69V49.43h-4.24Zm-50.37-.61a2.93,2.93,0,0,1-5,0,5.22,5.22,0,0,1-1-3.25,5.31,5.31,0,0,1,1-3.33,3,3,0,0,1,2.52-1.25,3,3,0,0,1,2.53,1.25,5.37,5.37,0,0,1,.94,3.33A5.29,5.29,0,0,1,69.35,60.39Z" transform="translate(-6.95 -6.21)"/><path class="cls-4" d="M139.65,73.43a1.85,1.85,0,0,1-.34-1.11c0-1.11.51-1.67,1.52-1.67a4.44,4.44,0,0,1,1.29.21V69a5.79,5.79,0,0,0-1.77-.31,3.18,3.18,0,0,0-2.38.9,3.28,3.28,0,0,0-.89,2.4,3.71,3.71,0,0,0,.59,2h-1.38v1.87h6.14l.84-1V74H140.9A1.48,1.48,0,0,1,139.65,73.43Z" transform="translate(-6.95 -6.21)"/><path class="cls-4" d="M154.76,61a.81.81,0,0,1-.24.59.94.94,0,0,1-.66.28H147c0-.19,0-.49,0-.91V40.54h-4.24V61a1,1,0,0,1-.2.59.94.94,0,0,1-.66.28H140l-5.76-17h-4l5.73,17h-8.44v1.39l1.74,2.15h14a3.63,3.63,0,0,0,1.49-.35A3.55,3.55,0,0,0,146.15,64h.1l1.15,1.42h7.81A3.47,3.47,0,0,0,158,64.09a3.62,3.62,0,0,0,.93-2.5V40.54h-4.2Z" transform="translate(-6.95 -6.21)"/><path class="cls-4" d="M197.82,61a.81.81,0,0,1-.24.59.91.91,0,0,1-.66.28H185v1.32l1.81,2.22H189a4.61,4.61,0,0,1-2.19,3.85,10.51,10.51,0,0,1-5.07.91q-4,0-5.68-1.34t-1.65-4.64V59.37H172.3l-2.15,1.7v3.51A8.36,8.36,0,0,0,173,71.45a10.25,10.25,0,0,0,7,2.26h3.44a10.73,10.73,0,0,0,6.35-1.77,8.06,8.06,0,0,0,3.47-6.53h5a3.46,3.46,0,0,0,2.81-1.32,3.63,3.63,0,0,0,.94-2.5V40.54h-4.21Z" transform="translate(-6.95 -6.21)"/><path class="cls-4" d="M219.08,50.44A7.47,7.47,0,0,0,214.42,49a7.68,7.68,0,0,0-5.93,2.36,8,8,0,0,0-2.12,5.8,8.91,8.91,0,0,0,1.87,5.66,7.31,7.31,0,0,0,6,2.85,10.72,10.72,0,0,0,2.91-.42c-.3,3.26-2.31,4.9-6,4.9A13.67,13.67,0,0,1,208.9,70v1.5l1.7,2.12c.56,0,1,.06,1.22.06a12.56,12.56,0,0,0,2.71-.27,9.33,9.33,0,0,0,4.06-2,8.48,8.48,0,0,0,2.85-6.87V55.44A5.79,5.79,0,0,0,219.08,50.44ZM217.2,61.69a6.83,6.83,0,0,1-2.29.42,4.05,4.05,0,0,1-3.18-1.3,5.19,5.19,0,0,1-1.16-3.56,5.28,5.28,0,0,1,1-3.44,3.48,3.48,0,0,1,2.83-1.25,2.69,2.69,0,0,1,1.78.59,2.75,2.75,0,0,1,1,2.29Z" transform="translate(-6.95 -6.21)"/><path class="cls-4" d="M239.74,61a1.15,1.15,0,0,1-.17.59,1,1,0,0,1-.7.28H237l-5.77-17h-4l5.73,17h-8.44v1.39l1.74,2.15h13.93A3.5,3.5,0,0,0,243,64.12a3.57,3.57,0,0,0,1-2.53V40.54h-4.24Z" transform="translate(-6.95 -6.21)"/><path class="cls-4" d="M232.41,41.62v-.87h-2.29a1.61,1.61,0,0,1-1.28-.55,1.83,1.83,0,0,1-.35-1.11c0-1.12.51-1.67,1.53-1.67a4.43,4.43,0,0,1,1.28.21V35.82a4.93,4.93,0,0,0-1.77-.35,3.15,3.15,0,0,0-2.36.89,3.28,3.28,0,0,0-.87,2.41,3.7,3.7,0,0,0,.56,2H225.5v1.88h6.11Z" transform="translate(-6.95 -6.21)"/><polygon class="cls-4" points="241.82 60.07 243.9 60.07 246.06 58.33 246.06 34.34 241.82 34.34 241.82 60.07"/><path class="cls-4" d="M278.77,48.5h-2.11l-1.46,1.18a7.8,7.8,0,0,0-9,1.49,8.75,8.75,0,0,0-2.54,6.46,7.94,7.94,0,0,0,2,5.73,7.27,7.27,0,0,0,5.76,2.36,7.84,7.84,0,0,0,5.25-1.63,6,6,0,0,0,2-4.76Zm-4.23,10.8a3,3,0,0,1-.73,2.05,3,3,0,0,1-2.29.83,3.21,3.21,0,0,1-2.66-1.2,5.22,5.22,0,0,1-1-3.35,5.58,5.58,0,0,1,1.2-3.72,3.94,3.94,0,0,1,3.15-1.42,6.1,6.1,0,0,1,2.29.49Z" transform="translate(-6.95 -6.21)"/><path class="cls-4" d="M271.24,46.27a2.19,2.19,0,0,0,2.22-2.22,2.21,2.21,0,0,0-.64-1.6,2.13,2.13,0,0,0-1.58-.66A2.25,2.25,0,0,0,269,44.05a2.13,2.13,0,0,0,.66,1.56A2.17,2.17,0,0,0,271.24,46.27Z" transform="translate(-6.95 -6.21)"/><path class="cls-4" d="M276.52,46.27a2.17,2.17,0,0,0,1.59-.66,2.13,2.13,0,0,0,.66-1.56,2.19,2.19,0,0,0-.66-1.6,2.26,2.26,0,0,0-3.19,0,2.19,2.19,0,0,0-.66,1.6,2.13,2.13,0,0,0,.66,1.56A2.17,2.17,0,0,0,276.52,46.27Z" transform="translate(-6.95 -6.21)"/><path class="cls-4" d="M308.92,48.08a19.17,19.17,0,0,0-7.75,1.74v2.39a5.37,5.37,0,0,0-2.39,1.95,6.53,6.53,0,0,0-1,3.68,7,7,0,0,0,.34,2.26,6.33,6.33,0,0,0,.87,1.77h-7.74V49.43H287V64.19q0,6-6.15,6a13.46,13.46,0,0,1-2.15-.18v1.5l1.7,2.12,1.36,0a10,10,0,0,0,6.14-1.84,8.14,8.14,0,0,0,3.3-6.39h9.93a6.27,6.27,0,0,0,2.57-.38h.14a6.31,6.31,0,0,0,2.57.38h8.44a3.5,3.5,0,0,0,2.57-1.08,3.74,3.74,0,0,0,1.18-2.74V58.12a10.57,10.57,0,0,0-2.19-7Q313.82,48.08,308.92,48.08Zm-3.37,12.29a2.41,2.41,0,0,1-1.84,1.08,2.61,2.61,0,0,1-1.95-1.18,4.83,4.83,0,0,1-.62-2.29,4.34,4.34,0,0,1,.49-2.12,2.24,2.24,0,0,1,2.08-1.25,2.29,2.29,0,0,1,1.77.83,3.74,3.74,0,0,1,.76,2.54A4.42,4.42,0,0,1,305.55,60.37Zm8.79.63a.94.94,0,0,1-.28.66.92.92,0,0,1-.63.21h-4.86a6.51,6.51,0,0,0,.87-1.88,7.17,7.17,0,0,0,.31-2.15,6,6,0,0,0-1.46-4.17,5.68,5.68,0,0,0-3.61-1.87,14.08,14.08,0,0,1,3.09-.35,6.57,6.57,0,0,1,4.86,1.6c1.14,1.15,1.71,3,1.71,5.62Z" transform="translate(-6.95 -6.21)"/><path class="cls-4" d="M347.81,67.94a2.13,2.13,0,0,0-1.56.66,2.27,2.27,0,0,0,0,3.2,2.13,2.13,0,0,0,1.56.66,2.26,2.26,0,1,0,0-4.52Z" transform="translate(-6.95 -6.21)"/><path class="cls-4" d="M365.21,61a.81.81,0,0,1-.24.59.94.94,0,0,1-.66.28h-6.25V57.63a8.15,8.15,0,0,0-2.33-6A9,9,0,0,0,349,49a20.77,20.77,0,0,0-6,1v3.37a26.11,26.11,0,0,1,5.14-.76,5.92,5.92,0,0,1,4.15,1.44,4.91,4.91,0,0,1,1.58,3.8V61a.77.77,0,0,1-.87.87H337.5V55.44A6,6,0,0,0,335,50.3,8,8,0,0,0,330.48,49a8.06,8.06,0,0,0-5.86,2.22,8.22,8.22,0,0,0-2.19,6.08,8.29,8.29,0,0,0,1.84,5.48,7.42,7.42,0,0,0,6,2.61h2.88q-.53,4.75-6.22,4.76a15.17,15.17,0,0,1-2.67-.25v1.53L326,73.64h.1c.65,0,1.15.07,1.5.07a14.24,14.24,0,0,0,3.19-.38,9.14,9.14,0,0,0,4-2,8.19,8.19,0,0,0,2.63-5.87h16.85A3.68,3.68,0,0,0,357.26,64h.07l1.15,1.42h7.18a3.47,3.47,0,0,0,2.82-1.32,3.62,3.62,0,0,0,.93-2.5V40.54h-4.2Zm-31.95.87H330.9a4,4,0,0,1-3.12-1.25,4.79,4.79,0,0,1-1.15-3.37,5.23,5.23,0,0,1,1-3.44,3.48,3.48,0,0,1,2.81-1.25,2.71,2.71,0,0,1,2.78,2.88Z" transform="translate(-6.95 -6.21)"/><polygon class="cls-4" points="367.26 34.34 367.26 60.07 369.34 60.07 371.49 58.33 371.49 34.34 367.26 34.34"/><path class="cls-4" d="M12.45,88.38,7,103.82H9l1.64-4.64h5.95l1.6,4.64h2.18L15,88.38Zm-1.27,9.14,2.52-7,2.37,7Z" transform="translate(-6.95 -6.21)"/><rect class="cls-4" x="18.74" y="82.17" width="1.77" height="15.44"/><path class="cls-4" d="M34,105.44a1.62,1.62,0,0,1-.3,1.14,1.62,1.62,0,0,1-1.14.3H32.1v1.49a2.25,2.25,0,0,0,.56.07q3.06,0,3.06-2.31V92.74H34Z" transform="translate(-6.95 -6.21)"/><path class="cls-4" d="M34.79,88.49a1.06,1.06,0,1,0,.76,1.8,1.08,1.08,0,0,0,0-1.49A1,1,0,0,0,34.79,88.49Z" transform="translate(-6.95 -6.21)"/><path class="cls-4" d="M51.42,102.53c-.47,0-.71-.28-.71-.82V95.52c0-2-1.39-3-4.16-3a4.7,4.7,0,0,0-3.71,1.31,3.64,3.64,0,0,0-.74,2.25h1.79c.12-1.3,1-1.94,2.57-1.94s2.5.55,2.5,1.66l0,.92-3.62.82a7.67,7.67,0,0,0-2.61.93,2.82,2.82,0,0,0-1.1,2.39,3,3,0,0,0,.86,2.23,3.76,3.76,0,0,0,2.78,1A4.37,4.37,0,0,0,49,102.44,1.63,1.63,0,0,0,50.9,104a3.81,3.81,0,0,0,1.15-.26v-1.43l-.18.07A2.46,2.46,0,0,1,51.42,102.53ZM49,100.09a1.87,1.87,0,0,1-.69,1.42,3.68,3.68,0,0,1-2.63,1c-1.47,0-2.2-.57-2.2-1.71A1.32,1.32,0,0,1,44,99.68a6.84,6.84,0,0,1,2.11-.8L49,98.15Z" transform="translate(-6.95 -6.21)"/><polygon class="cls-4" points="59.89 95.15 57.71 86.53 55.55 86.53 53.44 95.15 51.16 86.53 49.21 86.53 52.43 97.61 54.41 97.61 56.55 88.9 58.81 97.61 60.82 97.61 64.07 86.53 62.09 86.53 59.89 95.15"/><path class="cls-4" d="M81.66,92.5a4.41,4.41,0,0,0-2,.4,5,5,0,0,0-1.59,1.39V88.38H76.33v15.44h1.75V97.74a4.11,4.11,0,0,1,.83-2.7,2.7,2.7,0,0,1,2.19-1,2.5,2.5,0,0,1,1.57.5,2,2,0,0,1,.71,1.7v7.59h1.75v-8.3a2.77,2.77,0,0,0-.93-2.21A3.72,3.72,0,0,0,81.66,92.5Z" transform="translate(-6.95 -6.21)"/><path class="cls-4" d="M100.85,102.53c-.47,0-.71-.28-.71-.82V95.52c0-2-1.39-3-4.16-3a4.7,4.7,0,0,0-3.71,1.31,3.64,3.64,0,0,0-.74,2.25h1.79c.12-1.3,1-1.94,2.57-1.94s2.5.55,2.5,1.66l0,.92-3.62.82a7.85,7.85,0,0,0-2.61.93,2.84,2.84,0,0,0-1.1,2.39,3,3,0,0,0,.86,2.23,3.76,3.76,0,0,0,2.78,1,4.37,4.37,0,0,0,3.78-1.62,1.63,1.63,0,0,0,1.87,1.58,3.81,3.81,0,0,0,1.15-.26v-1.43l-.18.07A2.46,2.46,0,0,1,100.85,102.53Zm-2.46-2.44a1.87,1.87,0,0,1-.69,1.42,3.68,3.68,0,0,1-2.63,1c-1.46,0-2.2-.57-2.2-1.71a1.32,1.32,0,0,1,.57-1.14,7,7,0,0,1,2.11-.8l2.84-.73Z" transform="translate(-6.95 -6.21)"/><path class="cls-4" d="M108.57,94.76v-2h-1.64v11.08h1.77V98.06c0-1.56.4-2.64,1.19-3.21a4.34,4.34,0,0,1,2.37-.5V92.54a3.9,3.9,0,0,0-.63-.06A3.22,3.22,0,0,0,108.57,94.76Z" transform="translate(-6.95 -6.21)"/><path class="cls-4" d="M126.75,102.53c-.47,0-.71-.28-.71-.82V95.52c0-2-1.39-3-4.16-3a4.7,4.7,0,0,0-3.71,1.31,3.57,3.57,0,0,0-.73,2.25h1.79c.11-1.3,1-1.94,2.56-1.94s2.5.55,2.5,1.66l0,.92-3.62.82a7.85,7.85,0,0,0-2.61.93,2.84,2.84,0,0,0-1.1,2.39,3,3,0,0,0,.86,2.23,3.76,3.76,0,0,0,2.78,1,4.37,4.37,0,0,0,3.78-1.62,1.63,1.63,0,0,0,1.88,1.58,3.82,3.82,0,0,0,1.14-.26v-1.43l-.17.07A2.7,2.7,0,0,1,126.75,102.53Zm-2.46-2.44a1.87,1.87,0,0,1-.69,1.42,3.68,3.68,0,0,1-2.63,1c-1.46,0-2.2-.57-2.2-1.71a1.32,1.32,0,0,1,.57-1.14,7.07,7.07,0,0,1,2.11-.8l2.84-.73Z" transform="translate(-6.95 -6.21)"/><path class="cls-4" d="M144.74,88.38l-5.5,15.44h2.09L143,99.18h5.95l1.6,4.64h2.18l-5.42-15.44Zm-1.27,9.14,2.52-7,2.37,7Z" transform="translate(-6.95 -6.21)"/><rect class="cls-4" x="151.03" y="82.17" width="1.77" height="15.44"/><path class="cls-4" d="M170.6,92.5a4.72,4.72,0,0,0-3.54,1.34,6.2,6.2,0,0,0-1.53,4.5,6.35,6.35,0,0,0,1.16,4,5.28,5.28,0,0,0,7.38.39,5.93,5.93,0,0,0,1.51-4.4,6.5,6.5,0,0,0-1.17-4.09A4.45,4.45,0,0,0,170.6,92.5Zm2.29,8.84a2.74,2.74,0,0,1-2.31,1.08,2.86,2.86,0,0,1-2.25-1,4.56,4.56,0,0,1-1-3.13,4.93,4.93,0,0,1,.87-3.09,2.79,2.79,0,0,1,2.37-1.13,2.7,2.7,0,0,1,2.18,1,4.88,4.88,0,0,1,.94,3.23A4.78,4.78,0,0,1,172.89,101.34Z" transform="translate(-6.95 -6.21)"/><polygon class="cls-4" points="183.94 95.15 181.76 86.53 179.61 86.53 177.49 95.15 175.21 86.53 173.26 86.53 176.48 97.61 178.46 97.61 180.6 88.9 182.86 97.61 184.87 97.61 188.13 86.53 186.14 86.53 183.94 95.15"/><rect class="cls-4" x="193.41" y="82.17" width="1.77" height="15.44"/><path class="cls-4" d="M217.85,102.53c-.47,0-.71-.28-.71-.82V95.52c0-2-1.39-3-4.16-3a4.7,4.7,0,0,0-3.71,1.31,3.64,3.64,0,0,0-.74,2.25h1.79c.12-1.3,1-1.94,2.57-1.94s2.5.55,2.5,1.66l0,.92-3.62.82a7.67,7.67,0,0,0-2.61.93,2.82,2.82,0,0,0-1.1,2.39,3,3,0,0,0,.86,2.23,3.76,3.76,0,0,0,2.78,1,4.37,4.37,0,0,0,3.78-1.62,1.63,1.63,0,0,0,1.87,1.58,3.81,3.81,0,0,0,1.15-.26v-1.43l-.18.07A2.46,2.46,0,0,1,217.85,102.53Zm-2.46-2.44a1.87,1.87,0,0,1-.69,1.42,3.68,3.68,0,0,1-2.63,1c-1.47,0-2.2-.57-2.2-1.71a1.32,1.32,0,0,1,.57-1.14,6.87,6.87,0,0,1,2.1-.8l2.85-.73Z" transform="translate(-6.95 -6.21)"/><path class="cls-4" d="M243.61,102.39a10.33,10.33,0,0,1-.2-2.17,6.06,6.06,0,0,0-.56-2.91,3.3,3.3,0,0,0-1.56-1.1,4.67,4.67,0,0,0,1.89-1.51,3.88,3.88,0,0,0,.57-2.18,4,4,0,0,0-1.05-2.93A5,5,0,0,0,239,88.38h-7.1v15.44h2V97.18H239a2.48,2.48,0,0,1,2,.69,2.68,2.68,0,0,1,.36.71,2.37,2.37,0,0,1,.2.73l0,2.42a4.87,4.87,0,0,0,.47,2.09h2.37v-.5A1.74,1.74,0,0,1,243.61,102.39Zm-5-7H233.9v-5.3h4.76c2,0,3,.88,3,2.65S240.69,95.43,238.66,95.43Z" transform="translate(-6.95 -6.21)"/><path class="cls-4" d="M257.48,93.25a5.11,5.11,0,0,0-2.77-.75,4.73,4.73,0,0,0-3.52,1.38,6.14,6.14,0,0,0-1.55,4.46,6.25,6.25,0,0,0,1.18,4,4.61,4.61,0,0,0,3.87,1.73,4.94,4.94,0,0,0,3.14-1,4.38,4.38,0,0,0,1.6-2.72h-1.77a2.85,2.85,0,0,1-2.91,2,3,3,0,0,1-2.67-1.36,4.06,4.06,0,0,1-.61-2.26h8.18v-.07a9.69,9.69,0,0,0-.46-3.41A4.22,4.22,0,0,0,257.48,93.25Zm-5.94,4.1a3.61,3.61,0,0,1,1-2.36,2.94,2.94,0,0,1,2.21-.87,2.88,2.88,0,0,1,2.19.89,3.3,3.3,0,0,1,.85,2.34Z" transform="translate(-6.95 -6.21)"/><path class="cls-4" d="M269.76,102.42a2.79,2.79,0,0,1-2.2-.93,4.34,4.34,0,0,1-1-3.06,5.33,5.33,0,0,1,.82-3.17,2.64,2.64,0,0,1,2.26-1.14,2.4,2.4,0,0,1,2.64,2.32h1.76a4.4,4.4,0,0,0-.75-2.32,4.23,4.23,0,0,0-3.62-1.62,4.46,4.46,0,0,0-3.41,1.4,6.37,6.37,0,0,0-1.53,4.53,6.18,6.18,0,0,0,1.16,3.9,4.57,4.57,0,0,0,3.8,1.73,4.64,4.64,0,0,0,3-.93A4.26,4.26,0,0,0,274.2,100h-1.79A2.52,2.52,0,0,1,269.76,102.42Z" transform="translate(-6.95 -6.21)"/><path class="cls-4" d="M281.34,94.76v-2H279.7v11.08h1.77V98.06c0-1.56.4-2.64,1.19-3.21a4.34,4.34,0,0,1,2.37-.5V92.54a4,4,0,0,0-.63-.06A3.22,3.22,0,0,0,281.34,94.76Z" transform="translate(-6.95 -6.21)"/><path class="cls-4" d="M297.26,98.8a4.12,4.12,0,0,1-.82,2.7,2.7,2.7,0,0,1-2.2,1,2.34,2.34,0,0,1-1.68-.59,2,2,0,0,1-.63-1.55V92.74h-1.75v8.34a2.69,2.69,0,0,0,1,2.17,4.28,4.28,0,0,0,6.12-1.18v1.75H299V92.74h-1.75Z" transform="translate(-6.95 -6.21)"/><rect class="cls-4" x="298.61" y="82.17" width="1.77" height="15.44"/><path class="cls-4" d="M316.88,102.46a1,1,0,0,1-.7-.27.9.9,0,0,1-.27-.66V94.16h2.27V92.74h-2.27V89.67l-1.74.8v2.27h-1.51v1.42h1.51v8.15c0,1.17.71,1.75,2.13,1.75a12.53,12.53,0,0,0,2-.24l-.2-1.55A6,6,0,0,1,316.88,102.46Z" transform="translate(-6.95 -6.21)"/><path class="cls-4" d="M335.19,92.5a4.38,4.38,0,0,0-1.84.35,5,5,0,0,0-1.54,1.29,3.16,3.16,0,0,0-3-1.64,4,4,0,0,0-3.41,1.83V92.74h-1.64v11.08h1.77V96.88a2.88,2.88,0,0,1,.77-2,2.45,2.45,0,0,1,1.86-.83c1.37,0,2.05.73,2.05,2.2v7.59H332V96.88a2.88,2.88,0,0,1,.76-2,2.36,2.36,0,0,1,1.83-.84c1.38,0,2.07.73,2.07,2.2v7.59h1.77V95.54Q338.43,92.5,335.19,92.5Z" transform="translate(-6.95 -6.21)"/><path class="cls-4" d="M352.13,93.25a5.08,5.08,0,0,0-2.77-.75,4.71,4.71,0,0,0-3.51,1.38,6.1,6.1,0,0,0-1.56,4.46,6.26,6.26,0,0,0,1.19,4,4.6,4.6,0,0,0,3.86,1.73,5,5,0,0,0,3.15-1,4.42,4.42,0,0,0,1.6-2.72h-1.77a2.87,2.87,0,0,1-2.91,2,3,3,0,0,1-2.68-1.36,4,4,0,0,1-.6-2.26h8.17v-.07a9.74,9.74,0,0,0-.45-3.41A4.3,4.3,0,0,0,352.13,93.25Zm-5.94,4.1a3.61,3.61,0,0,1,1-2.36,3,3,0,0,1,2.21-.87,2.88,2.88,0,0,1,2.19.89,3.25,3.25,0,0,1,.85,2.34Z" transform="translate(-6.95 -6.21)"/><path class="cls-4" d="M365.56,92.5a4.14,4.14,0,0,0-3.67,2.11V92.74h-1.64v11.08H362V97.74a4.16,4.16,0,0,1,.82-2.7,2.7,2.7,0,0,1,2.2-1,2.31,2.31,0,0,1,1.67.58,2.09,2.09,0,0,1,.62,1.58v7.63h1.74V95.47a2.7,2.7,0,0,0-.94-2.16A3.84,3.84,0,0,0,365.56,92.5Z" transform="translate(-6.95 -6.21)"/><path class="cls-4" d="M379.86,102.27a6.08,6.08,0,0,1-1.25.19.94.94,0,0,1-.7-.27.9.9,0,0,1-.27-.66V94.16h2.26V92.74h-2.26V89.67l-1.75.8v2.27h-1.51v1.42h1.51v8.15c0,1.17.71,1.75,2.13,1.75a12.53,12.53,0,0,0,2-.24Z" transform="translate(-6.95 -6.21)"/></svg>