<svg id="Layer_1" data-name="Layer 1" xmlns="http://www.w3.org/2000/svg" viewBox="0 0 147.3 148.77"><defs><style>.cls-1{fill:#999;}</style></defs><path class="cls-1" d="M135.84,45.25c-.06-.08-.14-.16-.21-.24l-.31-.25-.28-.19a3.29,3.29,0,0,0-.39-.17l-.27-.1a2.75,2.75,0,0,0-.7-.1H60.74a3.07,3.07,0,0,0-.74.1l-.17.07a2.91,2.91,0,0,0-.51.22l-.18.12a3.12,3.12,0,0,0-.4.32l-.15.16a2.09,2.09,0,0,0-.2.22L42.13,68.48a2.88,2.88,0,0,0,0,3.27l52.72,77.76a2.87,2.87,0,0,0,4,.76,2.75,2.75,0,0,0,.76-.76L115.54,126l36.77-54.24a2.88,2.88,0,0,0,0-3.27L136,45.42C136,45.35,135.89,45.31,135.84,45.25Zm-7.6,4.69L113.11,72.27,98,49.94Zm-37.2,0,18.6,27.45L97.19,95.74l-31-45.8Zm6.15,92.85L48,70.19,60.69,52.12l1,1.47,48,70.79Zm16-23.53-12.47-18.4,4.08-6,29-42.72,12.66,18Z" transform="translate(-23.54 -29.84)"/><path class="cls-1" d="M142.59,29.84H51.8L23.54,69.94,97.19,178.61,170.84,70h0ZM97.19,168.37,71.75,130.83,30.52,70,54.78,35.59h84.83L163.86,70Z" transform="translate(-23.54 -29.84)"/></svg>